<?xml version="1.0" encoding="UTF-8" standalone="no"?>
<!-- Generator: Adobe Illustrator 17.0.0, SVG Export Plug-In . SVG Version: 6.00 Build 0)  -->

<svg
   xmlns:dc="http://purl.org/dc/elements/1.1/"
   xmlns:cc="http://creativecommons.org/ns#"
   xmlns:rdf="http://www.w3.org/1999/02/22-rdf-syntax-ns#"
   xmlns:svg="http://www.w3.org/2000/svg"
   xmlns="http://www.w3.org/2000/svg"
   xmlns:sodipodi="http://sodipodi.sourceforge.net/DTD/sodipodi-0.dtd"
   xmlns:inkscape="http://www.inkscape.org/namespaces/inkscape"
   version="1.1"
   id="Layer_1"
   x="0px"
   y="0px"
   width="42px"
   height="42px"
   viewBox="0 0 42 42"
   enable-background="new 0 0 42 42"
   xml:space="preserve"
   inkscape:version="0.48.4 r9939"
   sodipodi:docname="xsd.svg"><metadata
     id="metadata23"><rdf:RDF><cc:Work
         rdf:about=""><dc:format>image/svg+xml</dc:format><dc:type
           rdf:resource="http://purl.org/dc/dcmitype/StillImage" /></cc:Work></rdf:RDF></metadata><defs
     id="defs21" /><sodipodi:namedview
     pagecolor="#ffffff"
     bordercolor="#666666"
     borderopacity="1"
     objecttolerance="10"
     gridtolerance="10"
     guidetolerance="10"
     inkscape:pageopacity="0"
     inkscape:pageshadow="2"
     inkscape:window-width="640"
     inkscape:window-height="480"
     id="namedview19"
     showgrid="false"
     inkscape:zoom="5.6190476"
     inkscape:cx="21"
     inkscape:cy="21"
     inkscape:window-x="55"
     inkscape:window-y="34"
     inkscape:window-maximized="0"
     inkscape:current-layer="Layer_1" /><g
     id="g5"><path
       fill="#DBF3DB"
       d="M26.546,18.997h-1.075v4.005h1.075c0.771,0,0.969-0.295,0.969-0.877v-2.25   C27.515,19.293,27.318,18.997,26.546,18.997z"
       id="path7" /><path
       fill="#DBF3DB"
       d="M25.795,13.053V8.795H12.416v24.41h10.653l7.021-7.021l-0.038-13.131H25.795z M17.833,23.869l-1.368-2.135   l-1.359,2.135h-1.034l1.86-2.911l-1.802-2.827h1.034l1.301,2.051l1.311-2.051h1.033l-1.811,2.827l1.869,2.911H17.833z    M21.35,23.952c-0.541,0-1.193-0.102-1.681-0.298l-0.089-0.036l0.16-0.798l0.121,0.038c0.494,0.154,1.013,0.235,1.504,0.235   c0.838,0,0.953-0.194,0.953-0.746c0-0.178,0-0.315-0.018-0.426c-0.016-0.1-0.045-0.16-0.094-0.208   c-0.115-0.113-0.359-0.189-0.94-0.32c-1.38-0.309-1.579-0.608-1.579-1.808c0-1.037,0.464-1.538,1.877-1.538   c0.488,0,1.068,0.067,1.518,0.186l0.096,0.025l-0.08,0.831l-0.127-0.029c-0.432-0.098-0.943-0.154-1.39-0.154   c-0.861,0-0.952,0.151-0.952,0.704c0,0.183,0,0.322,0.016,0.433c0.016,0.099,0.042,0.157,0.088,0.203   c0.107,0.108,0.338,0.179,0.901,0.319c1.506,0.375,1.626,0.629,1.626,1.766C23.26,23.355,22.926,23.952,21.35,23.952z    M28.456,22.175c0,0.936-0.47,1.694-1.886,1.694h-2.041v-5.738h2.041c1.416,0,1.886,0.759,1.886,1.694V22.175z"
       id="path9" /><polygon
       fill="#3D6480"
       points="12.416,33.205 12.416,8.795 25.795,8.795 25.795,13.053 30.052,13.053 30.09,26.184 31.785,24.489    31.752,13.062 30.043,11.353 27.495,11.353 27.495,8.806 25.785,7.096 10.716,7.096 10.716,34.904 21.369,34.904 23.068,33.205     "
       id="polygon11" /><polygon
       fill="#3D6480"
       points="18.809,18.131 17.776,18.131 16.465,20.182 15.164,18.131 14.13,18.131 15.932,20.958    14.071,23.869 15.106,23.869 16.465,21.734 17.833,23.869 18.867,23.869 16.998,20.958  "
       id="polygon13" /><path
       fill="#3D6480"
       d="M21.634,20.565c-0.563-0.141-0.794-0.211-0.901-0.319c-0.046-0.046-0.072-0.104-0.088-0.203   c-0.016-0.11-0.016-0.25-0.016-0.433c0-0.553,0.091-0.704,0.952-0.704c0.446,0,0.958,0.057,1.39,0.154l0.127,0.029l0.08-0.831   l-0.096-0.025c-0.449-0.118-1.029-0.186-1.518-0.186c-1.413,0-1.877,0.501-1.877,1.538c0,1.199,0.199,1.499,1.579,1.808   c0.581,0.131,0.825,0.207,0.94,0.32c0.049,0.048,0.078,0.108,0.094,0.208c0.018,0.11,0.018,0.248,0.018,0.426   c0,0.552-0.115,0.746-0.953,0.746c-0.491,0-1.01-0.081-1.504-0.235L19.74,22.82l-0.16,0.798l0.089,0.036   c0.487,0.196,1.14,0.298,1.681,0.298c1.576,0,1.91-0.597,1.91-1.621C23.26,21.194,23.14,20.94,21.634,20.565z"
       id="path15" /><path
       fill="#3D6480"
       d="M26.57,18.131h-2.041v5.738h2.041c1.416,0,1.886-0.759,1.886-1.694v-2.35   C28.456,18.89,27.987,18.131,26.57,18.131z M27.515,22.125c0,0.582-0.197,0.877-0.969,0.877h-1.075v-4.005h1.075   c0.771,0,0.969,0.296,0.969,0.878V22.125z"
       id="path17" /></g><path
     style="fill:#3d6480"
     inkscape:connector-curvature="0"
     d="m 35.426203,31.566534 c 0.021,-0.375 -0.003,-0.755 -0.07,-1.138 l 1.308,-0.957 -0.177,-0.464 c -0.078,-0.203 -0.171,-0.399 -0.269,-0.595 l -0.228,-0.455 -1.553,0.355 c -0.104,-0.133 -0.224,-0.264 -0.347,-0.396 -0.143,-0.152 -0.278,-0.289 -0.434,-0.421 l 0.385,-1.558 -0.434,-0.241 c -0.198,-0.11 -0.397,-0.209 -0.603,-0.298 l -0.47,-0.203 -0.951,1.266 c -0.366,-0.084 -0.743,-0.127 -1.12,-0.128 l -0.71,-1.435 -0.48,0.086 c -0.219,0.039 -0.438,0.085 -0.652,0.146 l -0.491,0.142 0.067,1.596 c -0.314,0.162 -0.624,0.372 -0.925,0.626 l -1.476,-0.646 -0.312,0.384 c -0.143,0.175 -0.272,0.357 -0.395,0.545 l -0.276,0.425 1.079,1.163 c -0.148,0.352 -0.256,0.713 -0.318,1.07 l -1.548,0.458 0.004,0.491 c 0.003,0.221 0.016,0.439 0.041,0.658 l 0.058,0.508 1.592,0.197 c 0.11,0.367 0.259,0.715 0.447,1.041 l -0.909,1.35 0.981,1.053 1.378,-0.644 0.145,-0.089 c 0.313,0.204 0.654,0.373 1.018,0.505 l 0.176,1.611 0.488,0.079 c 0.216,0.035 0.431,0.053 0.648,0.065 l 0.509,0.027 0.465,-1.52 c 0.403,-0.049 0.784,-0.14 1.095,-0.266 l 1.178,1.12 0.425,-0.258 c 0.19,-0.115 0.373,-0.245 0.553,-0.382 l 0.407,-0.309 -0.626,-1.438 c 0.252,-0.27 0.477,-0.576 0.668,-0.91 l 1.605,0.098 0.16,-0.468 c 0.073,-0.211 0.139,-0.426 0.189,-0.643 l 0.117,-0.5 -1.412,-0.703 z m -5.041,3.382 c -1.988,0 -3.6,-1.611 -3.6,-3.6 0,-1.989 1.611,-3.601 3.6,-3.601 1.989,0 3.6,1.612 3.6,3.601 0,1.989 -1.611,3.6 -3.6,3.6 z"
     id="path7-3" /></svg>